<svg xmlns="http://www.w3.org/2000/svg" version="1.1" xmlns:xlink="http://www.w3.org/1999/xlink" xmlns:svgjs="http://svgjs.com/svgjs" width="512" height="512" x="0" y="0" viewBox="0 0 497 497" style="enable-background:new 0 0 512 512" xml:space="preserve" class=""><g><g xmlns="http://www.w3.org/2000/svg"><path d="m483.36 200.707c14.629 54.596 8.487 109.874-13.59 157.423l-22.3 11.37-1.903 29.349c-30.07 40.552-73.528 71.607-126.075 85.687-68.469 18.346-137.981 4.031-192.011-33.397l-74-138.299-5.683-146.404c11.309-26.278 28.062-50.011 48.466-70.29l85.386-27.169 77.768-40.088c40.946-.048 80.514 10.853 115.033 30.575l49.723 61.034 55.391 67.498c1.382 4.173 2.643 8.41 3.795 12.711z" fill="#314dc9" data-original="#314dc9" class=""></path><path d="m469.77 358.13-22.3 11.37-1.9 29.35c-30.07 40.55-73.53 71.61-126.08 85.69-24.8 6.64-49.74 9-74.03 7.53 15.37-.92 30.87-3.39 46.32-7.53 52.55-14.08 96.01-45.14 126.08-85.69 9.44-12.71 17.55-26.36 24.2-40.72 22.08-47.55 28.22-102.83 13.59-157.42-1.15-4.3-2.41-8.54-3.79-12.71-18.52-56.22-56.88-100.99-105.12-128.53-30.55-17.46-65.05-28-100.96-30.15 4.56-.29 9.11-.43 13.64-.43 40.94-.05 80.51 10.85 115.03 30.58l49.725 61.03 55.395 67.5c1.38 4.17 2.64 8.41 3.79 12.71 14.63 54.59 8.49 109.87-13.59 157.42z" fill="#2740b0" data-original="#2740b0"></path><path d="m200.891 204.119c2.591 9.669 1.019 19.469-3.621 27.506s-12.342 14.299-22.01 16.889l-21.441 5.745-28.523 7.643c-12.593 3.374-20.069 16.323-16.695 28.916 1.687 6.296 5.765 11.311 11.001 14.335s11.619 4.047 17.915 2.36c8.441-2.262 16.987-.891 23.998 3.166 7.02 4.044 12.479 10.759 14.741 19.2l4.292 16.018c4.581 17.096-5.559 34.659-22.655 39.24-10.191 2.731-18.669 8.914-24.382 17.045-5.703 8.128-8.642 18.203-7.747 28.715l1.718 20.242c-43.55-30.159-77.037-75.31-91.817-130.472-14.303-53.38-8.75-107.401 12.134-154.231l16.242-4.352c15.346-4.112 31.747-.912 44.419 8.686 6.341 4.798 13.604 7.999 21.208 9.484s15.538 1.258 23.211-.798l3.618-.969c19.335-5.181 39.213 6.295 44.394 25.632z" fill="#80d261" data-original="#80d261" class=""></path><path d="m180.55 345.9c4.58 17.09-5.56 34.66-22.66 39.24-10.19 2.73-18.67 8.91-24.38 17.04-5.7 8.13-8.64 18.21-7.75 28.72l1.72 20.24c-8.15-5.64-15.94-11.8-23.32-18.45.05-9.07 2.93-17.66 7.91-24.76 5.71-8.13 14.19-14.32 24.38-17.05 17.1-4.58 27.24-22.14 22.66-39.24l-4.3-16.02c-2.26-8.44-7.72-15.15-14.74-19.2-7.01-4.05-15.55-5.42-24-3.16-6.29 1.69-12.67.66-17.91-2.36s-9.31-8.04-11-14.34c-3.38-12.59 4.1-25.54 16.69-28.91l21.16-5.67c-12.42 3.49-19.75 16.34-16.41 28.84 1.69 6.29 5.76 11.31 11 14.33 5.24 3.03 11.62 4.05 17.92 2.36 8.44-2.26 16.98-.89 23.99 3.17 7.02 4.04 12.48 10.76 14.75 19.2z" fill="#68ca44" data-original="#68ca44" class=""></path><path d="m197.27 231.63c-4.64 8.03-12.34 14.29-22.01 16.88l-21.44 5.75c9.67-2.59 17.37-8.85 22.01-16.89s6.21-17.84 3.62-27.51c-5.18-19.33-25.06-30.81-44.4-25.63l-3.61.97c-7.68 2.06-15.61 2.29-23.21.8-7.61-1.49-14.87-4.69-21.21-9.48-11.28-8.55-25.53-12.02-39.35-9.77.04-.1.08-.21.13-.31l16.24-4.36c15.35-4.11 31.75-.91 44.42 8.69 6.34 4.8 13.6 8 21.21 9.48 7.6 1.49 15.53 1.26 23.21-.79l3.62-.97c19.33-5.18 39.21 6.29 44.39 25.63 2.59 9.67 1.02 19.47-3.62 27.51z" fill="#68ca44" data-original="#68ca44" class=""></path><path d="m457.64 312.84 12.13 45.29c-6.65 14.36-14.76 28.01-24.2 40.72l-13.91-20.84-32.08-48.06c-10.62-15.89-30.17-23.25-48.64-18.31-7.36 1.98-14.84.78-20.96-2.76-6.12-3.53-10.89-9.4-12.86-16.77l-8-29.85c-3.95-14.73 4.79-29.87 19.53-33.82l27.91-7.48c14.24-3.82 22.69-18.46 18.88-32.69l-3.58-13.37c-2.24-8.34-7.64-14.99-14.58-18.99-6.93-4.01-15.4-5.37-23.74-3.13-10.61 2.84-21.37 1.12-30.18-3.97-9.1-5.26-16.14-14.1-18.8-25.19-5.05-21.07 8.1-42.24 29.02-47.84l41.72-11.18 19.15-5.13c48.24 27.54 86.6 72.31 105.12 128.53l-23.93 6.41c-.55.15-1.1.31-1.63.5-14.33 4.75-22.64 19.91-18.68 34.68z" fill="#80d261" data-original="#80d261" class=""></path><path d="m457.64 312.84 12.13 45.29c-6.65 14.36-14.76 28.01-24.2 40.72l-13.91-20.84c3.78-6.45 7.26-13.09 10.4-19.88 6.72-14.46 11.96-29.63 15.58-45.29z" fill="#68ca44" data-original="#68ca44" class=""></path><path d="m451.86 188c-17.41-52.85-52.36-95.59-96.56-123.4l19.15-5.13c48.24 27.54 86.6 72.31 105.12 128.53l-23.93 6.41c-.55.15-1.1.31-1.63.5-.67-2.32-1.39-4.63-2.15-6.91z" fill="#68ca44" data-original="#68ca44" class=""></path><path d="m259.418 28.89-19.077 33.043c-8.906 15.425-23.574 26.676-40.777 31.285l-52.206 13.988c-13.969 3.743-28.849 1.782-41.376-5.441l-9.718-5.62c27.729-27.561 62.801-48.465 103.268-59.308 20.009-5.36 40.103-7.93 59.886-7.947z" fill="#8ac9fe" data-original="#8ac9fe"></path><path d="m259.42 28.89-19.08 33.04c-8.9 15.43-23.57 26.68-40.78 31.29l-12.01 3.22c9.34-5.78 17.2-13.82 22.79-23.51l25.62-42.81c7.85-.82 15.68-1.22 23.46-1.23z" fill="#60b7ff" data-original="#60b7ff"></path><path d="m469.727 395.573c0 5.125-2.08 9.76-5.437 13.133-3.357 3.357-8.007 5.437-13.133 5.437h-69.822c-10.251 0-18.57-8.319-18.57-18.57 0-5.125 2.08-9.76 5.437-13.132 3.357-3.357 8.007-5.437 13.133-5.437h8.007c0-14.856 12.048-26.904 26.904-26.904s26.904 12.048 26.904 26.904h8.007c10.251-.001 18.57 8.319 18.57 18.569z" fill="#d9e7ec" data-original="#d9e7ec"></path><path d="m469.73 395.57c0 5.13-2.08 9.76-5.44 13.14-3.36 3.35-8.01 5.43-13.13 5.43h-27.34c5.13 0 9.78-2.08 13.14-5.43 3.35-3.38 5.43-8.01 5.43-13.14 0-10.25-8.32-18.57-18.57-18.57h-8c0-9.86-5.32-18.49-13.24-23.17 4.01-2.37 8.68-3.73 13.67-3.73 14.85 0 26.9 12.05 26.9 26.9h8.01c10.25 0 18.57 8.32 18.57 18.57z" fill="#c5d3dd" data-original="#c5d3dd"></path><path d="m266.054 342.15c0 5.125-2.08 9.76-5.437 13.133-3.357 3.357-8.007 5.437-13.133 5.437h-69.822c-10.251 0-18.57-8.319-18.57-18.57 0-5.125 2.08-9.76 5.437-13.132 3.357-3.357 8.007-5.437 13.133-5.437h8.007c0-14.856 12.048-26.904 26.904-26.904s26.904 12.048 26.904 26.904h8.007c10.251 0 18.57 8.319 18.57 18.569z" fill="#d9e7ec" data-original="#d9e7ec"></path><path d="m266.05 342.15c0 5.13-2.08 9.76-5.43 13.13-3.36 3.36-8.01 5.44-13.14 5.44h-25.09c5.13 0 9.78-2.08 13.13-5.44 3.36-3.37 5.44-8 5.44-13.13 0-10.25-8.32-18.57-18.57-18.57h-8.01c0-10.33-5.82-19.29-14.35-23.79 3.74-1.99 8.01-3.11 12.54-3.11 14.86 0 26.91 12.04 26.91 26.9h8c10.25 0 18.57 8.32 18.57 18.57z" fill="#c5d3dd" data-original="#c5d3dd"></path><path d="m106.962 161.466c0 5.125-2.08 9.76-5.437 13.133-3.357 3.357-8.007 5.437-13.133 5.437h-69.822c-10.251 0-18.57-8.319-18.57-18.57 0-5.125 2.08-9.76 5.437-13.132 3.357-3.357 8.007-5.437 13.133-5.437h8.007c0-14.856 12.048-26.904 26.904-26.904s26.904 12.048 26.904 26.904h8.007c10.25 0 18.57 8.319 18.57 18.569z" fill="#d9e7ec" data-original="#d9e7ec"></path><path d="m106.96 161.47c0 5.12-2.08 9.76-5.44 13.13-3.35 3.36-8 5.44-13.13 5.44h-25.77c5.13 0 9.78-2.08 13.13-5.44 3.36-3.37 5.44-8.01 5.44-13.13 0-10.25-8.32-18.57-18.57-18.57h-8.01c0-10.19-5.66-19.06-14.02-23.63 3.83-2.09 8.22-3.28 12.89-3.28 14.86 0 26.9 12.05 26.9 26.91h8.01c10.25 0 18.57 8.32 18.57 18.57z" fill="#c5d3dd" data-original="#c5d3dd"></path><circle cx="460.587" cy="40.922" fill="#ffe177" r="36.413" data-original="#ffe177"></circle><path d="m497 40.92c0 20.11-16.3 36.41-36.41 36.41-4.62 0-9.05-.86-13.12-2.44 13.63-5.27 23.29-18.49 23.29-33.97s-9.66-28.7-23.29-33.97c4.07-1.58 8.5-2.44 13.12-2.44 20.11 0 36.41 16.3 36.41 36.41z" fill="#ffc344" data-original="#ffc344"></path></g></g></svg>